<svg width="1210" height="734" viewBox="0 0 1210 734" fill="none" xmlns="http://www.w3.org/2000/svg">
<path d="M781 382L1015.69 517.5V788.5L781 924L546.307 788.5V517.5L781 382Z" fill="#1F1F1F"/>
<path d="M85 0L158.612 42.5V127.5L85 170L11.3878 127.5V42.5L85 0Z" fill="#1F1F1F"/>
<path d="M170 630L243.612 672.5V757.5L170 800L96.3878 757.5V672.5L170 630Z" fill="#1F1F1F"/>
<path d="M1055 500L1085.31 517.5V552.5L1055 570L1024.69 552.5V517.5L1055 500Z" fill="#1F1F1F"/>
<path d="M205 25L235.311 42.5V77.5L205 95L174.689 77.5V42.5L205 25Z" fill="#1F1F1F"/>
<path d="M1072.5 250L1087.66 258.75V276.25L1072.5 285L1057.34 276.25V258.75L1072.5 250Z" fill="#1F1F1F"/>
<path d="M1099.5 63L1114.66 71.75V89.25L1099.5 98L1084.34 89.25V71.75L1099.5 63Z" fill="#1F1F1F"/>
<path d="M1120 167L1163.3 192V242L1120 267L1076.7 242V192L1120 167Z" fill="#1F1F1F"/>
<path d="M1197 29L1270.61 71.5V156.5L1197 199L1123.39 156.5V71.5L1197 29Z" fill="#1F1F1F"/>
</svg>
